999
"DXF R12 Output" (www.mydxf.blogspot.com)
 0 
SECTION
 2 
HEADER
 9 
$ACADVER
 1 
AC1009
 9 
$EXTMIN
 10 
 0 
 20 
 0 
 9 
$EXTMAX
 10 
 8.5 
 20 
 11 
 0 
ENDSEC
 0 
SECTION
 2 
ENTITIES
0
LINE
8
Layer 1
10
8.960550
20
15.918600
11
2.986850
21
15.918600
0
LINE
8
Layer 1
10
2.986850
20
15.918600
11
2.986850
21
8.451450
0
LINE
8
Layer 1
10
2.986850
20
8.451450
11
8.960550
21
8.451450
0
LINE
8
Layer 1
10
8.960550
20
8.451450
11
8.960554
21
12.931720
0
LINE
8
Layer 1
10
8.960550
20
14.425200
11
4.480270
21
14.425200
0
LINE
8
Layer 1
10
4.480270
20
9.944880
11
7.467120
21
9.944880
0
LINE
8
Layer 1
10
7.467120
20
9.944880
11
7.467120
21
11.438300
0
LINE
8
Layer 1
10
4.480270
20
9.944880
11
4.480270
21
14.425200
0
LINE
8
Layer 1
10
8.960550
20
15.918600
11
8.960550
21
14.425200
0
LINE
8
Layer 1
10
8.960550
20
12.931700
11
5.973700
21
12.931700
0
LINE
8
Layer 1
10
7.467120
20
11.438300
11
5.973700
21
11.438300
0
LINE
8
Layer 1
10
5.973700
20
11.438300
11
5.973700
21
12.931700
0
LINE
8
Layer 1
10
10.454000
20
15.918600
11
10.454000
21
8.451450
0
LINE
8
Layer 1
10
16.427700
20
8.451450
11
10.454000
21
8.451450
0
LINE
8
Layer 1
10
16.427700
20
8.451450
11
16.427700
21
9.944880
0
LINE
8
Layer 1
10
11.947400
20
9.944880
11
16.427700
21
9.944880
0
LINE
8
Layer 1
10
10.454000
20
15.918600
11
16.427700
21
15.918600
0
LINE
8
Layer 1
10
16.427700
20
14.425200
11
11.947400
21
14.425200
0
LINE
8
Layer 1
10
11.947400
20
14.425200
11
11.947400
21
12.931700
0
LINE
8
Layer 1
10
16.427700
20
15.918600
11
16.427700
21
14.425200
0
LINE
8
Layer 1
10
11.947400
20
12.931700
11
14.934200
21
12.931700
0
LINE
8
Layer 1
10
14.934200
20
12.931700
11
14.934200
21
11.438300
0
LINE
8
Layer 1
10
14.934200
20
11.438300
11
11.947400
21
11.438300
0
LINE
8
Layer 1
10
11.947400
20
11.438300
11
11.947400
21
9.944880
0
LINE
8
Layer 1
10
25.388200
20
16.067900
11
25.388200
21
8.600760
0
LINE
8
Layer 1
10
31.361900
20
8.600760
11
25.388200
21
8.600760
0
LINE
8
Layer 1
10
31.361900
20
8.600760
11
31.361900
21
10.094200
0
LINE
8
Layer 1
10
26.881600
20
10.094200
11
31.361900
21
10.094200
0
LINE
8
Layer 1
10
17.921100
20
15.918600
11
17.921100
21
8.451450
0
LINE
8
Layer 1
10
17.921100
20
8.451450
11
23.894800
21
8.451450
0
LINE
8
Layer 1
10
23.894800
20
8.451450
11
23.894800
21
15.918600
0
LINE
8
Layer 1
10
23.894800
20
15.918600
11
17.921100
21
15.918600
0
LINE
8
Layer 1
10
22.401400
20
14.425200
11
19.414500
21
14.425200
0
LINE
8
Layer 1
10
19.414500
20
14.425200
11
19.414500
21
9.944930
0
LINE
8
Layer 1
10
19.414500
20
9.944880
11
22.401400
21
9.944880
0
LINE
8
Layer 1
10
22.401400
20
9.944880
11
22.401400
21
14.425150
0
LINE
8
Layer 1
10
42.562600
20
15.918600
11
44.056000
21
15.918600
0
LINE
8
Layer 1
10
44.056000
20
15.918600
11
44.056000
21
11.438400
0
LINE
8
Layer 1
10
44.056000
20
11.438400
11
44.802700
21
11.438400
0
LINE
8
Layer 1
10
44.802700
20
11.438400
11
44.802700
21
9.944930
0
LINE
8
Layer 1
10
44.802700
20
9.944930
11
44.056000
21
9.944930
0
LINE
8
Layer 1
10
44.056000
20
9.944930
11
44.056000
21
8.451500
0
LINE
8
Layer 1
10
44.056000
20
8.451500
11
42.562600
21
8.451500
0
LINE
8
Layer 1
10
42.562600
20
8.451500
11
42.562600
21
9.944930
0
LINE
8
Layer 1
10
42.562600
20
9.944930
11
39.575700
21
9.944930
0
LINE
8
Layer 1
10
39.575700
20
9.944930
11
39.575700
21
11.438400
0
LINE
8
Layer 1
10
39.575700
20
11.438400
11
42.562550
21
15.918670
0
LINE
8
Layer 1
10
41.069100
20
11.438400
11
42.562600
21
11.438400
0
LINE
8
Layer 1
10
42.562600
20
11.438400
11
42.562600
21
13.678500
0
LINE
8
Layer 1
10
42.562600
20
13.678500
11
41.069180
21
11.438360
0
LINE
8
Layer 1
10
51.523200
20
8.600800
11
51.523200
21
16.067900
0
LINE
8
Layer 1
10
53.016600
20
11.587600
11
53.016600
21
13.081100
0
LINE
8
Layer 1
10
53.016600
20
13.081100
11
57.496900
21
13.081100
0
LINE
8
Layer 1
10
57.496900
20
13.058700
11
57.496900
21
11.565300
0
LINE
8
Layer 1
10
57.496900
20
11.587600
11
53.016600
21
11.587600
0
LINE
8
Layer 1
10
26.881600
20
10.071900
11
26.881600
21
16.045600
0
LINE
8
Layer 1
10
26.881600
20
16.045600
11
26.881600
21
16.045600
0
LINE
8
Layer 1
10
26.881600
20
16.045600
11
26.881600
21
16.045600
0
LINE
8
Layer 1
10
26.881600
20
16.045600
11
26.881600
21
16.045600
0
LINE
8
Layer 1
10
26.881600
20
16.045600
11
26.881600
21
16.045600
0
LINE
8
Layer 1
10
26.881600
20
16.045600
11
25.388200
21
16.045600
0
LINE
8
Layer 1
10
25.388200
20
16.045600
11
25.388200
21
16.045600
0
LINE
8
Layer 1
10
38.082300
20
16.045600
11
32.855400
21
16.045600
0
LINE
8
Layer 1
10
32.855400
20
16.045600
11
32.855400
21
8.578450
0
LINE
8
Layer 1
10
32.855400
20
8.578450
11
38.082300
21
8.578450
0
LINE
8
Layer 1
10
38.082300
20
8.578450
11
38.082300
21
16.045600
0
LINE
8
Layer 1
10
34.348800
20
10.071900
11
36.588900
21
10.071900
0
LINE
8
Layer 1
10
36.588900
20
10.071900
11
36.588900
21
11.565300
0
LINE
8
Layer 1
10
36.588900
20
11.565300
11
34.348800
21
11.565300
0
LINE
8
Layer 1
10
34.348800
20
11.565300
11
34.348800
21
10.071900
0
LINE
8
Layer 1
10
34.348800
20
14.552200
11
34.348800
21
13.058700
0
LINE
8
Layer 1
10
34.348800
20
13.058700
11
36.588900
21
13.058700
0
LINE
8
Layer 1
10
36.588900
20
13.058700
11
36.588900
21
14.552200
0
LINE
8
Layer 1
10
36.588900
20
14.552200
11
34.348800
21
14.552200
0
LINE
8
Layer 1
10
51.523200
20
16.045600
11
46.296200
21
16.045600
0
LINE
8
Layer 1
10
46.296200
20
14.552200
11
50.029800
21
14.552200
0
LINE
8
Layer 1
10
50.029800
20
14.552200
11
50.029803
21
13.058770
0
LINE
8
Layer 1
10
50.029803
20
13.058770
11
50.029800
21
13.058700
0
LINE
8
Layer 1
10
50.029800
20
13.058700
11
46.296200
21
13.058700
0
LINE
8
Layer 1
10
50.029800
20
11.565300
11
46.296200
21
11.565300
0
LINE
8
Layer 1
10
50.029800
20
11.565300
11
50.029800
21
10.071900
0
LINE
8
Layer 1
10
50.029800
20
10.071900
11
50.029800
21
10.071900
0
LINE
8
Layer 1
10
50.029800
20
10.071900
11
46.296200
21
10.071900
0
LINE
8
Layer 1
10
51.523200
20
8.578450
11
46.296200
21
8.578450
0
LINE
8
Layer 1
10
46.296200
20
8.578450
11
46.296200
21
10.071900
0
LINE
8
Layer 1
10
46.296200
20
11.565300
11
46.296200
21
13.058700
0
LINE
8
Layer 1
10
46.296200
20
14.552200
11
46.296200
21
16.045600
0
LINE
8
Layer 1
10
79.898300
20
16.045600
11
73.924600
21
16.045600
0
LINE
8
Layer 1
10
73.924600
20
16.045600
11
73.924600
21
8.578450
0
LINE
8
Layer 1
10
73.924600
20
8.578450
11
79.898300
21
8.578450
0
LINE
8
Layer 1
10
79.898300
20
8.578450
11
79.898303
21
13.058720
0
LINE
8
Layer 1
10
79.898300
20
14.552200
11
75.418000
21
14.552200
0
LINE
8
Layer 1
10
75.418000
20
10.071900
11
78.404800
21
10.071900
0
LINE
8
Layer 1
10
78.404800
20
10.071900
11
78.404800
21
11.565300
0
LINE
8
Layer 1
10
75.418000
20
10.071900
11
75.418000
21
14.552200
0
LINE
8
Layer 1
10
79.898300
20
16.045600
11
79.898300
21
14.552200
0
LINE
8
Layer 1
10
79.898300
20
13.058700
11
76.911400
21
13.058700
0
LINE
8
Layer 1
10
78.404800
20
11.565300
11
76.911400
21
11.565300
0
LINE
8
Layer 1
10
76.911400
20
11.565300
11
76.911400
21
13.058700
0
LINE
8
Layer 1
10
58.990300
20
16.045600
11
58.990300
21
8.578450
0
LINE
8
Layer 1
10
64.964000
20
8.578450
11
64.964000
21
16.045600
0
LINE
8
Layer 1
10
60.483700
20
13.058700
11
63.470600
21
13.058700
0
LINE
8
Layer 1
10
60.483700
20
11.565300
11
63.470600
21
11.565300
0
LINE
8
Layer 1
10
63.470600
20
11.565300
11
63.470600
21
8.578450
0
LINE
8
Layer 1
10
63.470600
20
8.578450
11
64.964000
21
8.578450
0
LINE
8
Layer 1
10
60.483700
20
11.565300
11
60.483700
21
8.578450
0
LINE
8
Layer 1
10
60.483700
20
8.578450
11
58.990300
21
8.578450
0
LINE
8
Layer 1
10
58.990300
20
16.045600
11
60.483700
21
16.045600
0
LINE
8
Layer 1
10
60.483700
20
16.045600
11
60.483700
21
13.058700
0
LINE
8
Layer 1
10
63.470600
20
13.058700
11
63.470600
21
16.045600
0
LINE
8
Layer 1
10
63.470600
20
16.045600
11
64.964000
21
16.045600
0
LINE
8
Layer 1
10
66.457400
20
16.045600
11
66.457400
21
8.578450
0
LINE
8
Layer 1
10
72.431100
20
8.578450
11
72.431100
21
16.045600
0
LINE
8
Layer 1
10
67.950900
20
8.578450
11
67.950900
21
13.805400
0
LINE
8
Layer 1
10
67.950900
20
13.805400
11
70.937750
21
8.578410
0
LINE
8
Layer 1
10
66.457400
20
16.045600
11
67.950900
21
16.045600
0
LINE
8
Layer 1
10
72.431100
20
16.045600
11
70.937700
21
16.045600
0
LINE
8
Layer 1
10
70.937700
20
16.045600
11
70.937703
21
10.818610
0
LINE
8
Layer 1
10
67.950900
20
16.045600
11
70.937750
21
10.818610
0
LINE
8
Layer 1
10
70.937700
20
8.578450
11
72.431100
21
8.578450
0
LINE
8
Layer 1
10
66.457400
20
8.578450
11
67.950900
21
8.578450
 0 
ENDSEC
 0 
EOF